<svg id="Layer_1" enable-background="new 0 0 508.82 508.82" height="512" viewBox="0 0 508.82 508.82" width="512" xmlns="http://www.w3.org/2000/svg"><path d="m157.198 0h-109.057c-26.545 0-48.141 21.596-48.141 48.141v109.058c0 26.545 21.596 48.141 48.141 48.141h109.058c26.545 0 48.141-21.596 48.141-48.141v-109.058c-.001-26.545-21.597-48.141-48.142-48.141zm16.141 157.198c0 8.9-7.241 16.141-16.141 16.141h-109.057c-8.9 0-16.141-7.24-16.141-16.141v-109.057c0-8.901 7.241-16.141 16.141-16.141h109.058c8.9 0 16.141 7.24 16.141 16.141v109.057z"/><path d="m157.198 303.068h-109.057c-26.545 0-48.141 21.595-48.141 48.14v109.058c0 26.545 21.596 48.141 48.141 48.141h109.058c26.545 0 48.141-21.596 48.141-48.141v-109.058c-.001-26.545-21.597-48.14-48.142-48.14zm16.141 157.198c0 8.9-7.241 16.141-16.141 16.141h-109.057c-8.9 0-16.141-7.24-16.141-16.141v-109.058c0-8.9 7.241-16.141 16.141-16.141h109.058c8.9 0 16.141 7.24 16.141 16.141v109.058z"/><path d="m476.75 390.151h-54.529c-17.684 0-32.07 14.387-32.07 32.07v54.528c0 17.684 14.387 32.07 32.07 32.07h54.529c17.684 0 32.07-14.387 32.07-32.07v-54.528c0-17.684-14.387-32.07-32.07-32.07zm.031 86.667c-.1.021-4.387-.004-54.63-.068l.07-54.599 54.599.07z"/><path d="m325.216 390.151h-54.529c-17.684 0-32.07 14.387-32.07 32.07v54.528c0 17.684 14.387 32.07 32.07 32.07h54.529c17.684 0 32.07-14.387 32.07-32.07v-54.528c0-17.684-14.387-32.07-32.07-32.07zm.031 86.667c-.1.021-4.387-.004-54.63-.068l.07-54.599 54.599.07z"/><path d="m476.75 238.616h-54.529c-17.684 0-32.07 14.387-32.07 32.07v54.528c0 17.684 14.387 32.07 32.07 32.07h54.529c17.684 0 32.07-14.387 32.07-32.07v-54.528c0-17.683-14.387-32.07-32.07-32.07zm.031 86.667c-2.385 0-51.34-.064-54.631-.068l.07-54.599 54.599.07z"/><path d="m351.208 205.339h109.058c26.545 0 48.141-21.596 48.141-48.141v-109.057c0-26.545-21.596-48.141-48.141-48.141h-109.058c-26.545 0-48.141 21.596-48.141 48.141v109.058c.001 26.544 21.597 48.14 48.141 48.14zm-16.14-157.198c0-8.9 7.241-16.141 16.141-16.141h109.058c8.9 0 16.141 7.24 16.141 16.141v109.058c0 8.9-7.241 16.141-16.141 16.141h-109.059c-8.9 0-16.141-7.24-16.141-16.141v-109.058z"/><path d="m110.629 77.974h-15.092c-9.7 0-17.563 7.863-17.563 17.563v15.091c0 9.7 7.863 17.563 17.563 17.563h15.091c9.7 0 17.563-7.863 17.563-17.563v-15.091c.001-9.7-7.863-17.563-17.562-17.563z"/><path d="m110.629 381.041h-15.092c-9.7 0-17.563 7.863-17.563 17.563v15.091c0 9.7 7.863 17.563 17.563 17.563h15.091c9.7 0 17.563-7.863 17.563-17.563v-15.091c.001-9.699-7.863-17.563-17.562-17.563z"/><path d="m398.605 128.192h15.091c9.7 0 17.563-7.863 17.563-17.563v-15.092c0-9.7-7.863-17.563-17.563-17.563h-15.091c-9.7 0-17.563 7.863-17.563 17.563v15.091c0 9.7 7.863 17.564 17.563 17.564z"/><path d="m254.617 119.082c8.836 0 16-7.163 16-16v-86.669c0-8.837-7.164-16-16-16s-16 7.163-16 16v86.669c0 8.837 7.163 16 16 16z"/><path d="m254.617 244.123h17.563v31.774c0 8.837 7.164 16 16 16s16-7.163 16-16v-47.774c0-8.837-7.164-16-16-16h-17.563v-36.797c0-8.837-7.164-16-16-16s-16 7.163-16 16v52.797c0 8.837 7.163 16 16 16z"/><path d="m77.974 270.616c8.836 0 16-7.163 16-16s-7.164-16-16-16h-61.56c-8.836 0-16 7.163-16 16s7.164 16 16 16z"/><path d="m184.1 270.616c8.836 0 16-7.163 16-16s-7.164-16-16-16h-47.396c-8.836 0-16 7.163-16 16s7.164 16 16 16z"/><path d="m341.286 287.945c-8.836 0-16 7.163-16 16v21.341h-70.669c-8.836 0-16 7.163-16 16s7.164 16 16 16h86.669c8.836 0 16-7.163 16-16v-37.341c0-8.837-7.163-16-16-16z"/></svg>